<?xml version="1.0" encoding="UTF-8" standalone="no"?>
<svg
   xmlns:dc="http://purl.org/dc/elements/1.1/"
   xmlns:cc="http://creativecommons.org/ns#"
   xmlns:rdf="http://www.w3.org/1999/02/22-rdf-syntax-ns#"
   xmlns:svg="http://www.w3.org/2000/svg"
   xmlns="http://www.w3.org/2000/svg"
   xmlns:sodipodi="http://sodipodi.sourceforge.net/DTD/sodipodi-0.dtd"
   xmlns:inkscape="http://www.inkscape.org/namespaces/inkscape"
   sodipodi:docname="Bunny.svg"
   inkscape:version="1.0 (4035a4fb49, 2020-05-01)"
   id="svg8"
   version="1.1"
   viewBox="0 0 210 297"
   height="297mm"
   width="210mm">
  <defs
     id="defs2" />
  <sodipodi:namedview
     inkscape:window-maximized="1"
     inkscape:window-y="-8"
     inkscape:window-x="-8"
     inkscape:window-height="705"
     inkscape:window-width="1366"
     showgrid="false"
     inkscape:document-rotation="0"
     inkscape:current-layer="layer1"
     inkscape:document-units="mm"
     inkscape:cy="493.95792"
     inkscape:cx="155.85169"
     inkscape:zoom="0.35"
     inkscape:pageshadow="2"
     inkscape:pageopacity="0.0"
     borderopacity="1.0"
     bordercolor="#666666"
     pagecolor="#ffffff"
     id="base" />
  <metadata
     id="metadata5">
    <rdf:RDF>
      <cc:Work
         rdf:about="">
        <dc:format>image/svg+xml</dc:format>
        <dc:type
           rdf:resource="http://purl.org/dc/dcmitype/StillImage" />
        <dc:title></dc:title>
      </cc:Work>
    </rdf:RDF>
  </metadata>
  <g
     id="layer1"
     inkscape:groupmode="layer"
     inkscape:label="Layer 1">
    <g
       transform="translate(-114.74741,-146.64824)"
       id="g888">
      <path
         id="path847"
         style="opacity:1;fill:#ffaaaa;fill-rule:evenodd;stroke-width:17.5906;stroke-linecap:round;stroke-linejoin:round"
         d="m 486.92578,573.29492 c -1.80513,0.0136 -3.53523,0.3076 -5.17187,0.87891 -16.06599,5.60421 -20.00533,36.19546 -8.79883,68.32812 7.31739,20.98124 19.71619,38.36748 32.44922,45.50196 -17.31664,10.32767 -27.60135,27.04358 -27.60157,44.86132 -3e-5,13.42163 5.84758,26.38099 16.44336,36.44141 -22.35876,15.91997 -35.63597,41.67174 -35.63671,69.11914 -3.9e-4,46.86346 41.52716,60.59804 88.39062,60.59766 46.8627,-6.9e-4 81.31484,-13.73496 81.31445,-60.59766 -7.5e-4,-27.4474 -13.27795,-53.19918 -35.63672,-69.11914 10.59578,-10.06042 16.44339,-23.01978 16.44336,-36.44141 9e-5,-17.81873 -10.28546,-34.53557 -27.60351,-44.86328 12.73326,-7.13282 25.1329,-24.51842 32.45117,-45.5 11.2065,-32.13266 7.26716,-62.72391 -8.79883,-68.32812 -1.63664,-0.57131 -3.36674,-0.86532 -5.17187,-0.87891 -15.64151,-0.11428 -34.31872,20.54978 -44.21094,48.91406 -7.39182,21.19564 -8.43561,42.72406 -2.72461,56.19532 -3.17829,-0.39392 -6.38678,-0.59172 -9.59961,-0.5918 -0.0957,-1.8e-4 -0.19141,-1.8e-4 -0.28711,0 -3.11764,0.0116 -6.23033,0.20937 -9.31445,0.5918 5.711,-13.47126 4.66721,-34.99968 -2.72461,-56.19532 -9.89222,-28.36428 -28.56943,-49.02834 -44.21094,-48.91406 z m 52.8086,256.8457 a 14.004327,14.004327 0 0 1 9.91796,4.10157 14.004327,14.004327 0 0 1 3.57032,6.09179 14.004327,14.004327 0 0 1 16.72851,2.32618 14.004327,14.004327 0 0 1 0,19.80468 14.004327,14.004327 0 0 1 -2.36914,1.90235 14.004327,14.004327 0 0 1 -1.5918,17.90234 14.004327,14.004327 0 0 1 -18.99023,0.75391 14.004327,14.004327 0 0 1 -1.80469,2.21679 14.004327,14.004327 0 0 1 -19.80469,0 14.004327,14.004327 0 0 1 -3.69921,-13.23437 14.004327,14.004327 0 0 1 -4.71875,-3.10547 14.004327,14.004327 0 0 1 0,-19.80469 14.004327,14.004327 0 0 1 8.80078,-4.05664 14.004327,14.004327 0 0 1 4.07226,-10.79687 14.004327,14.004327 0 0 1 9.88868,-4.10157 z"
         transform="scale(0.26458333)" />
      <path
         d="m 140.18865,220.72656 a 3.7053114,3.7053114 0 0 0 -1.07776,2.85639 3.7053114,3.7053114 0 0 0 -2.32826,1.07346 3.7053114,3.7053114 0 0 0 -1e-5,5.24012 3.7053114,3.7053114 0 0 0 1.24823,0.82168 3.7053114,3.7053114 0 0 0 0.97873,3.50152 3.7053114,3.7053114 0 0 0 5.24012,-1e-5 3.7053114,3.7053114 0 0 0 0.47743,-0.58689 3.7053114,3.7053114 0 0 0 5.02457,-0.19934 3.7053114,3.7053114 0 0 0 0.42097,-4.73658 3.7053114,3.7053114 0 0 0 0.62715,-0.50356 3.7053114,3.7053114 0 0 0 -2.6e-4,-5.23986 3.7053114,3.7053114 0 0 0 -4.42578,-0.61525 3.7053114,3.7053114 0 0 0 -0.94504,-1.6117 3.7053114,3.7053114 0 0 0 -5.24012,-1e-5 z"
         style="opacity:1;fill:#f2f2f2;fill-rule:evenodd;stroke-width:2.26601;stroke-linecap:round;stroke-linejoin:round"
         id="path883" />
    </g>
  </g>
</svg>
