<svg width="870" height="656" viewBox="0 0 870 656" fill="none" xmlns="http://www.w3.org/2000/svg">
<g clip-path="url(#clip0_6_1224)">
<path d="M138.497 632.052C170.126 600.423 170.126 549.141 138.496 517.512C106.867 485.882 55.5855 485.882 23.956 517.512C-7.67345 549.141 -7.67347 600.423 23.956 632.052C55.5855 663.682 106.867 663.682 138.497 632.052Z" stroke="#5C4FA1" stroke-width="0.5" stroke-miterlimit="10"/>
<path d="M302.624 285.72C359.168 285.72 405.006 239.882 405.006 183.338C405.006 126.794 359.168 80.9555 302.624 80.9555C246.08 80.9555 200.242 126.794 200.242 183.338C200.242 239.882 246.08 285.72 302.624 285.72Z" stroke="#5C4FA1" stroke-width="0.5" stroke-miterlimit="10"/>
<path d="M341.507 381.937H193.62C192.363 381.937 191.344 382.956 191.344 384.213V477.808C191.344 479.065 192.363 480.084 193.62 480.084H341.507C342.764 480.084 343.783 479.065 343.783 477.808V384.213C343.783 382.956 342.764 381.937 341.507 381.937Z" stroke="#5C4FA1" stroke-width="2" stroke-linecap="round" stroke-linejoin="round"/>
<path d="M191.344 394.989H343.79" stroke="#5C4FA1" stroke-width="2" stroke-linecap="round" stroke-linejoin="round"/>
<path d="M202.893 388.374C202.893 390.024 201.56 391.357 199.91 391.357C198.26 391.357 196.927 390.017 196.927 388.374C196.927 386.732 198.26 385.391 199.91 385.391C201.56 385.391 202.893 386.732 202.893 388.374Z" fill="#5C4FA1" stroke="#5C4FA1" stroke-miterlimit="10"/>
<path d="M210.06 391.357C211.708 391.357 213.043 390.022 213.043 388.374C213.043 386.727 211.708 385.391 210.06 385.391C208.413 385.391 207.077 386.727 207.077 388.374C207.077 390.022 208.413 391.357 210.06 391.357Z" fill="#5C4FA1" stroke="#5C4FA1" stroke-miterlimit="10"/>
<path d="M220.21 391.357C221.857 391.357 223.193 390.022 223.193 388.374C223.193 386.727 221.857 385.391 220.21 385.391C218.562 385.391 217.227 386.727 217.227 388.374C217.227 390.022 218.562 391.357 220.21 391.357Z" fill="#5C4FA1" stroke="#5C4FA1" stroke-miterlimit="10"/>
<path d="M679.847 98.0438H531.96C530.703 98.0438 529.684 99.0627 529.684 100.32V193.915C529.684 195.172 530.703 196.191 531.96 196.191H679.847C681.104 196.191 682.123 195.172 682.123 193.915V100.32C682.123 99.0627 681.104 98.0438 679.847 98.0438Z" stroke="#F7B21A" stroke-width="2" stroke-miterlimit="10"/>
<path d="M529.684 111.103H682.123" stroke="#F7B21A" stroke-width="2" stroke-miterlimit="10"/>
<path d="M538.243 107.472C539.89 107.472 541.226 106.136 541.226 104.489C541.226 102.841 539.89 101.506 538.243 101.506C536.595 101.506 535.26 102.841 535.26 104.489C535.26 106.136 536.595 107.472 538.243 107.472Z" fill="#E99D23"/>
<path d="M548.392 107.472C550.04 107.472 551.376 106.136 551.376 104.489C551.376 102.841 550.04 101.506 548.392 101.506C546.745 101.506 545.409 102.841 545.409 104.489C545.409 106.136 546.745 107.472 548.392 107.472Z" fill="#E99D23"/>
<path d="M561.533 104.489C561.533 106.139 560.2 107.472 558.55 107.472C556.9 107.472 555.567 106.131 555.567 104.489C555.567 102.846 556.9 101.506 558.55 101.506C560.2 101.506 561.533 102.846 561.533 104.489Z" fill="#E99D23"/>
<path d="M311.457 20.0413L243.708 64.9857L252.621 78.4214L320.371 33.477L311.457 20.0413Z" fill="#5C4FA1"/>
<path d="M254.388 50.661L247.63 49.2936L238.303 95.3887L245.06 96.7561L254.388 50.661Z" fill="white"/>
<path d="M272.954 38.3402L266.197 36.9728L256.869 83.0679L263.627 84.4353L272.954 38.3402Z" fill="white"/>
<path d="M291.536 26.0209L284.779 24.6534L275.451 70.7486L282.208 72.116L291.536 26.0209Z" fill="white"/>
<path d="M310.103 13.6927L303.345 12.3253L294.018 58.4204L300.775 59.7878L310.103 13.6927Z" fill="white"/>
<path d="M328.684 1.37337L321.927 0.00595856L312.599 46.1011L319.356 47.4685L328.684 1.37337Z" fill="white"/>
<path d="M253.491 77.2187L328.213 53.1272L344.781 104.512C345.547 106.889 344.24 109.438 341.864 110.205L275.757 131.518C273.381 132.284 270.831 130.978 270.065 128.602L253.498 77.2164L253.491 77.2187Z" fill="#2E2E7F"/>
<path d="M329.552 52.6977L252.172 77.6458L257.12 92.9913L334.499 68.0432L329.552 52.6977Z" fill="#5C4FA1"/>
<path d="M266.325 66.743L260.19 63.5992L238.744 105.454L244.879 108.598L266.325 66.743Z" fill="white"/>
<path d="M287.536 59.8969L281.401 56.753L259.955 98.6081L266.091 101.752L287.536 59.8969Z" fill="white"/>
<path d="M308.752 53.0646L302.616 49.9208L281.17 91.7758L287.306 94.9197L308.752 53.0646Z" fill="white"/>
<path d="M329.963 46.2258L323.827 43.082L302.381 84.937L308.517 88.0809L329.963 46.2258Z" fill="white"/>
<path d="M351.178 39.3862L345.042 36.2424L323.597 78.0974L329.732 81.2413L351.178 39.3862Z" fill="white"/>
<path d="M311.293 93.8233C312.877 94.1621 313.495 96.0919 312.413 97.2925L306.373 103.966L300.333 110.639C299.25 111.84 297.269 111.412 296.776 109.873L294.013 101.307L291.251 92.7405C290.758 91.2011 292.113 89.6985 293.697 90.0373L302.499 91.9303L311.301 93.8233H311.293Z" fill="#EDEDED"/>
<path d="M94.9281 554.999H162.125V379.904H94.9281V554.999ZM98.471 391.225V384.633H105.063V391.225H98.471ZM98.471 405.794V399.202H105.063V405.794H98.471ZM98.471 420.363V413.771H105.063V420.363H98.471ZM98.471 434.932V428.34H105.063V434.932H98.471ZM98.471 449.502V442.909H105.063V449.502H98.471ZM98.471 464.071V457.479H105.063V464.071H98.471ZM98.471 478.64V472.048H105.063V478.64H98.471ZM98.471 493.209V486.617H105.063V493.209H98.471ZM98.471 507.778V501.186H105.063V507.778H98.471ZM98.471 522.348V515.755H105.063V522.348H98.471ZM98.471 536.917V530.325H105.063V536.917H98.471ZM98.471 551.486V544.894H105.063V551.486H98.471ZM157.727 544.894V551.486H151.135V544.894H157.727ZM157.727 530.325V536.917H151.135V530.325H157.727ZM157.727 515.755V522.348H151.135V515.755H157.727ZM143.158 513.501C144.941 513.501 146.384 514.945 146.384 516.728V549.195C146.384 550.978 144.941 552.421 143.158 552.421H113.887C112.105 552.421 110.661 550.978 110.661 549.195V516.728C110.661 514.945 112.105 513.501 113.887 513.501H143.158ZM157.727 501.186V507.778H151.135V501.186H157.727ZM157.727 486.617V493.209H151.135V486.617H157.727ZM157.727 472.048V478.64H151.135V472.048H157.727ZM143.158 469.823C144.941 469.823 146.384 471.267 146.384 473.05V505.517C146.384 507.3 144.941 508.743 143.158 508.743H113.887C112.105 508.743 110.661 507.3 110.661 505.517V473.05C110.661 471.267 112.105 469.823 113.887 469.823H143.158ZM157.727 457.479V464.071H151.135V457.479H157.727ZM157.727 442.909V449.502H151.135V442.909H157.727ZM157.727 428.34V434.932H151.135V428.34H157.727ZM143.158 426.145C144.941 426.145 146.384 427.589 146.384 429.371V461.839C146.384 463.622 144.941 465.065 143.158 465.065H113.887C112.105 465.065 110.661 463.622 110.661 461.839V429.371C110.661 427.589 112.105 426.145 113.887 426.145H143.158ZM157.727 413.771V420.363H151.135V413.771H157.727ZM157.727 399.202V405.794H151.135V399.202H157.727ZM157.727 384.633V391.225H151.135V384.633H157.727ZM143.158 382.46C144.941 382.46 146.384 383.903 146.384 385.686V418.154C146.384 419.936 144.941 421.38 143.158 421.38H113.887C112.105 421.38 110.661 419.936 110.661 418.154V385.686C110.661 383.903 112.105 382.46 113.887 382.46H143.158Z" fill="#5C4FA1"/>
<path d="M713.301 286.692H780.498V111.596H713.301V286.692ZM716.844 122.917V116.325H723.436V122.917H716.844ZM716.844 137.487V130.894H723.436V137.487H716.844ZM716.844 152.056V145.464H723.436V152.056H716.844ZM716.844 166.625V160.033H723.436V166.625H716.844ZM716.844 181.194V174.602H723.436V181.194H716.844ZM716.844 195.763V189.171H723.436V195.763H716.844ZM716.844 210.333V203.74H723.436V210.333H716.844ZM716.844 224.902V218.31H723.436V224.902H716.844ZM716.844 239.471V232.879H723.436V239.471H716.844ZM716.844 254.04V247.448H723.436V254.04H716.844ZM716.844 268.609V262.017H723.436V268.609H716.844ZM716.844 283.179V276.586H723.436V283.179H716.844ZM776.101 276.586V283.179H769.508V276.586H776.101ZM776.101 262.017V268.609H769.508V262.017H776.101ZM776.101 247.448V254.04H769.508V247.448H776.101ZM761.531 245.194C763.314 245.194 764.758 246.638 764.758 248.42V280.888C764.758 282.67 763.314 284.114 761.531 284.114H732.26C730.478 284.114 729.034 282.67 729.034 280.888V248.42C729.034 246.638 730.478 245.194 732.26 245.194H761.531ZM776.101 232.879V239.471H769.508V232.879H776.101ZM776.101 218.31V224.902H769.508V218.31H776.101ZM776.101 203.74V210.333H769.508V203.74H776.101ZM761.531 201.516C763.314 201.516 764.758 202.96 764.758 204.742V237.21C764.758 238.992 763.314 240.436 761.531 240.436H732.26C730.478 240.436 729.034 238.992 729.034 237.21V204.742C729.034 202.96 730.478 201.516 732.26 201.516H761.531ZM776.101 189.171V195.763H769.508V189.171H776.101ZM776.101 174.602V181.194H769.508V174.602H776.101ZM776.101 160.033V166.625H769.508V160.033H776.101ZM761.531 157.838C763.314 157.838 764.758 159.282 764.758 161.064V193.532C764.758 195.314 763.314 196.758 761.531 196.758H732.26C730.478 196.758 729.034 195.314 729.034 193.532V161.064C729.034 159.282 730.478 157.838 732.26 157.838H761.531ZM776.101 145.464V152.056H769.508V145.464H776.101ZM776.101 130.894V137.487H769.508V130.894H776.101ZM776.101 116.325V122.917H769.508V116.325H776.101ZM761.531 114.152C763.314 114.152 764.758 115.596 764.758 117.379V149.846C764.758 151.629 763.314 153.072 761.531 153.072H732.26C730.478 153.072 729.034 151.629 729.034 149.846V117.379C729.034 115.596 730.478 114.152 732.26 114.152H761.531Z" fill="#5C4FA1"/>
<path d="M545.078 439.374H468.35V483.862H545.078V439.374Z" fill="#DCDBDB"/>
<path d="M683.64 216.542H320.368C316.808 216.542 313.923 219.427 313.923 222.987V435.699C313.923 439.258 316.808 442.143 320.368 442.143H683.64C687.199 442.143 690.085 439.258 690.085 435.699V222.987C690.085 219.427 687.199 216.542 683.64 216.542Z" fill="#DCDBDB"/>
<path d="M669.483 216.542H306.211C302.651 216.542 299.766 219.427 299.766 222.987V435.699C299.766 439.258 302.651 442.143 306.211 442.143H669.483C673.043 442.143 675.928 439.258 675.928 435.699V222.987C675.928 219.427 673.043 216.542 669.483 216.542Z" fill="#F4F4F5"/>
<path d="M665.469 429.637V229.041C665.469 227.06 663.863 225.454 661.882 225.454L313.805 225.454C311.824 225.454 310.218 227.06 310.218 229.041V429.637C310.218 431.618 311.824 433.224 313.805 433.224H661.882C663.863 433.224 665.469 431.618 665.469 429.637Z" fill="#5C4FA1"/>
<path d="M665.469 429.637V229.041C665.469 227.06 663.863 225.454 661.882 225.454L313.805 225.454C311.824 225.454 310.218 227.06 310.218 229.041V429.637C310.218 431.618 311.824 433.224 313.805 433.224H661.882C663.863 433.224 665.469 431.618 665.469 429.637Z" stroke="#5C4FA1" stroke-width="1.51" stroke-miterlimit="10"/>
<path d="M526.207 439.374H449.48V483.862H526.207V439.374Z" fill="#F2F2F3"/>
<path d="M574.99 505.046H444.405V483.862H553.806C565.503 483.862 574.99 493.349 574.99 505.046Z" fill="#DCDBDB"/>
<path d="M503.499 505.046H372.914C372.914 493.349 382.401 483.862 394.097 483.862H482.316C494.012 483.862 503.499 493.349 503.499 505.046Z" fill="#F4F4F5"/>
<path d="M546.728 163.635H258.975C251.604 163.635 245.629 169.61 245.629 176.981V337.132C245.629 344.503 251.604 350.478 258.975 350.478H546.728C554.099 350.478 560.074 344.503 560.074 337.132V176.981C560.074 169.61 554.099 163.635 546.728 163.635Z" fill="#F8B218"/>
<path d="M567.433 192.198V346.037C567.433 353.123 561.695 358.86 554.609 358.86H278.199C271.114 358.86 265.376 353.123 265.376 346.037V192.198C265.376 185.113 271.114 179.375 278.199 179.375H554.616C561.702 179.375 567.44 185.113 567.44 192.198C567.44 192.198 567.44 185.113 567.44 192.198H567.433Z" stroke="#5C4FA1" stroke-width="0.75" stroke-miterlimit="10"/>
<path d="M560.074 176.981V203.041H245.629V176.981C245.629 169.608 251.602 163.635 258.975 163.635H546.728C554.101 163.635 560.074 169.608 560.074 176.981Z" fill="#E99D23"/>
<path d="M560.074 301.792H245.629V331.328H560.074V301.792Z" fill="#E0E4F0"/>
<path d="M560.074 266.606H245.629V296.142H560.074V266.606Z" fill="#E0E4F0"/>
<path d="M560.074 231.42H245.629V260.957H560.074V231.42Z" fill="#F8B218"/>
<path d="M560.074 218.435H245.629V225.778H560.074V218.435Z" fill="#5C4FA1"/>
<path d="M259.579 210.789H255.948V221.506H259.579V210.789Z" fill="#5C4FA1"/>
<path d="M307.942 210.789H304.311V221.506H307.942V210.789Z" fill="#5C4FA1"/>
<path d="M356.304 210.789H352.673V221.506H356.304V210.789Z" fill="#5C4FA1"/>
<path d="M404.667 210.789H401.036V221.506H404.667V210.789Z" fill="#5C4FA1"/>
<path d="M453.03 210.789H449.399V221.506H453.03V210.789Z" fill="#5C4FA1"/>
<path d="M501.4 210.789H497.769V221.506H501.4V210.789Z" fill="#5C4FA1"/>
<path d="M549.763 210.789H546.131V221.506H549.763V210.789Z" fill="#5C4FA1"/>
<path d="M492.451 272.395H482.492L492.451 282.346V272.395Z" fill="#2E2E7F"/>
<path d="M502.402 272.395H492.451V282.346L502.402 272.395Z" fill="#5C4FA1"/>
<path d="M492.451 290.36H482.492L492.451 280.409V290.36Z" fill="#2E2E7F"/>
<path d="M502.402 290.36H492.451V280.409L502.402 290.36Z" fill="#5C4FA1"/>
<path d="M351.834 307.581H341.883L351.834 317.532V307.581Z" fill="#2E2E7F"/>
<path d="M361.792 307.581H351.834V317.532L361.792 307.581Z" fill="#5C4FA1"/>
<path d="M351.834 325.546H341.883L351.834 315.595V325.546Z" fill="#2E2E7F"/>
<path d="M361.792 325.546H351.834V315.595L361.792 325.546Z" fill="#5C4FA1"/>
<path d="M293.52 281.374L304.23 292.091V270.664L293.52 281.374Z" fill="#2E2E7F"/>
<path d="M304.23 270.664V292.091L314.947 281.374L304.23 270.664Z" fill="#5C4FA1"/>
<path d="M383.351 281.374L394.061 292.091V270.664L383.351 281.374Z" fill="#2E2E7F"/>
<path d="M394.061 270.664V292.091L404.778 281.374L394.061 270.664Z" fill="#5C4FA1"/>
<path d="M260.021 316.56L270.731 327.277V305.85L260.021 316.56Z" fill="#2E2E7F" stroke="#5C4FA1" stroke-miterlimit="10"/>
<path d="M270.731 305.85V327.277L281.448 316.56L270.731 305.85Z" fill="#5C4FA1" stroke="#5C4FA1" stroke-miterlimit="10"/>
<path d="M429.718 316.56L440.427 327.277V305.85L429.718 316.56Z" fill="#2E2E7F"/>
<path d="M440.427 305.85V327.277L451.137 316.56L440.427 305.85Z" fill="#5C4FA1"/>
<path d="M522.907 316.56L533.617 327.277V305.85L522.907 316.56Z" fill="#2E2E7F"/>
<path d="M533.617 305.85V327.277L544.327 316.56L533.617 305.85Z" fill="#5C4FA1"/>
<path d="M560.074 236.849H245.629V255.528H560.074V236.849Z" fill="#E0E4F0"/>
<path d="M383.351 236.849H245.629V255.528H383.351V236.849Z" fill="#E99D23"/>
<path d="M386.945 231.31C386.945 229.321 385.332 227.716 383.351 227.716C381.37 227.716 379.757 229.329 379.757 231.31C379.757 233.056 381.009 234.514 382.659 234.838V255.528H384.043V234.838C385.701 234.514 386.945 233.063 386.945 231.31Z" fill="white"/>
<path d="M616.765 177.947C630.395 173.249 637.635 158.391 632.937 144.762C628.238 131.132 613.381 123.892 599.751 128.59C586.121 133.288 578.881 148.146 583.58 161.776C588.278 175.405 603.136 182.646 616.765 177.947Z" stroke="#F7B21A" stroke-miterlimit="10"/>
<path d="M603.546 176.915C617.963 176.915 629.65 165.228 629.65 150.811C629.65 136.394 617.963 124.707 603.546 124.707C589.129 124.707 577.442 136.394 577.442 150.811C577.442 165.228 589.129 176.915 603.546 176.915Z" fill="#E99D23"/>
<path d="M616.517 148.491C618.3 149.522 618.3 152.093 616.517 153.124L606.603 158.847L596.689 164.57C594.906 165.601 592.675 164.312 592.675 162.257V139.365C592.675 137.31 594.906 136.021 596.689 137.052L606.603 142.775L616.517 148.498V148.491Z" fill="white"/>
<path d="M275.046 446.741C278.567 431.718 269.243 416.686 254.22 413.165C239.198 409.644 224.165 418.968 220.645 433.991C217.124 449.014 226.448 464.046 241.471 467.567C256.493 471.087 271.525 461.763 275.046 446.741Z" stroke="#F7B21A" stroke-width="2" stroke-miterlimit="10"/>
<path d="M270.581 442.964C274.149 427.952 264.872 412.891 249.861 409.323C234.849 405.755 219.788 415.031 216.22 430.043C212.652 445.054 221.929 460.116 236.94 463.684C251.951 467.252 267.013 457.975 270.581 442.964Z" fill="#F8B218"/>
<path d="M234.588 420.083C236.731 420.083 238.477 421.822 238.477 423.972V449.097C238.477 451.24 236.738 452.986 234.588 452.986C232.444 452.986 230.699 451.247 230.699 449.097V423.972C230.699 421.829 232.437 420.083 234.588 420.083Z" fill="white" stroke="#5C4FA1" stroke-miterlimit="10"/>
<path d="M252.228 420.083C254.372 420.083 256.117 421.822 256.117 423.972V449.097C256.117 451.24 254.379 452.986 252.228 452.986C250.085 452.986 248.339 451.247 248.339 449.097V423.972C248.339 421.829 250.078 420.083 252.228 420.083Z" fill="white" stroke="#5C4FA1" stroke-miterlimit="10"/>
<path d="M236.466 505.046H212.609V584.933H236.466V505.046Z" fill="#E99D23"/>
<path d="M869.357 505.046H617.821V528.167H869.357V505.046Z" fill="#E99D23"/>
<path d="M699.476 505.046H197.87V528.167H699.476V505.046Z" fill="#F8B218"/>
<path d="M221.727 505.046H197.87V584.933H221.727V505.046Z" fill="#F8B218"/>
<path d="M713.301 505.046H689.444V584.933H713.301V505.046Z" fill="#E99D23"/>
<path d="M698.563 505.046H674.705V584.933H698.563V505.046Z" fill="#F8B218"/>
<path d="M621.319 487.42H610.087C600.35 487.42 595.267 495.308 595.267 505.046H638.945C638.945 495.308 631.057 487.42 621.319 487.42Z" fill="#B7BBC4"/>
<path d="M608.739 487.42H605.064C595.326 487.42 587.438 495.308 587.438 505.046H626.365C626.365 495.308 618.476 487.42 608.739 487.42Z" fill="#E0E4F0"/>
<path d="M607.376 487.42H606.419V505.046H607.376V487.42Z" fill="#8A8D94"/>
<path d="M769.074 371.095H629.878C626.844 371.095 624.384 373.555 624.384 376.589V465.073C624.384 468.107 626.844 470.567 629.878 470.567H769.074C772.108 470.567 774.568 468.107 774.568 465.073V376.589C774.568 373.555 772.108 371.095 769.074 371.095Z" fill="#2E2E7F"/>
<path d="M748.649 389.354H640.117C637.516 389.354 635.41 387.247 635.41 384.647C635.41 382.047 637.516 379.941 640.117 379.941H748.649C751.249 379.941 753.356 382.047 753.356 384.647C753.356 387.247 751.249 389.354 748.649 389.354Z" fill="white"/>
<path d="M706.599 407.297H640.117C637.516 407.297 635.41 405.19 635.41 402.59C635.41 399.99 637.516 397.883 640.117 397.883H706.599C709.199 397.883 711.305 399.99 711.305 402.59C711.305 405.19 709.199 407.297 706.599 407.297Z" fill="white"/>
<path d="M729.535 425.232H640.117C637.516 425.232 635.41 423.125 635.41 420.525C635.41 417.925 637.516 415.819 640.117 415.819H729.535C732.135 415.819 734.242 417.925 734.242 420.525C734.242 423.125 732.135 425.232 729.535 425.232Z" fill="white"/>
<path d="M669.999 443.167H640.117C637.516 443.167 635.41 441.061 635.41 438.461C635.41 435.861 637.516 433.754 640.117 433.754H669.999C672.599 433.754 674.705 435.861 674.705 438.461C674.705 441.061 672.599 443.167 669.999 443.167Z" fill="white"/>
<path d="M702.776 461.103H640.117C637.516 461.103 635.41 458.996 635.41 456.396C635.41 453.796 637.516 451.689 640.117 451.689H702.776C705.376 451.689 707.482 453.796 707.482 456.396C707.482 458.996 705.376 461.103 702.776 461.103Z" fill="white"/>
<path d="M610.706 340.66L608.599 332.801L605.97 322.982C605.587 321.561 606.89 320.257 608.312 320.64L618.13 323.27L625.989 325.376C627.728 325.84 627.919 328.227 626.284 328.971L620.914 331.409L627.433 337.927C628.589 339.084 628.589 340.955 627.433 342.111C626.277 343.267 624.406 343.267 623.249 342.111L616.731 335.592L614.293 340.962C613.549 342.597 611.162 342.398 610.698 340.667L610.706 340.66Z" fill="white"/>
<path d="M471.621 99.1192H401.286C392.683 99.1192 385.708 106.094 385.708 114.697C385.708 117.614 386.526 120.332 387.918 122.66L383.815 135.373C382.88 138.275 386.054 140.779 388.654 139.188L403.268 130.276H471.621C480.224 130.276 487.199 123.3 487.199 114.697C487.199 106.094 480.224 99.1192 471.621 99.1192Z" fill="#F8B218"/>
<path d="M403.356 121.547C407.249 121.547 410.405 118.392 410.405 114.499C410.405 110.606 407.249 107.45 403.356 107.45C399.463 107.45 396.307 110.606 396.307 114.499C396.307 118.392 399.463 121.547 403.356 121.547Z" fill="white"/>
<path d="M425.166 121.547C429.059 121.547 432.215 118.392 432.215 114.499C432.215 110.606 429.059 107.45 425.166 107.45C421.273 107.45 418.117 110.606 418.117 114.499C418.117 118.392 421.273 121.547 425.166 121.547Z" fill="white"/>
<path d="M454.024 114.499C454.024 118.388 450.872 121.547 446.975 121.547C443.079 121.547 439.926 118.395 439.926 114.499C439.926 110.602 443.079 107.45 446.975 107.45C450.872 107.45 454.024 110.602 454.024 114.499Z" fill="white"/>
<path d="M468.785 121.547C472.678 121.547 475.834 118.392 475.834 114.499C475.834 110.606 472.678 107.45 468.785 107.45C464.892 107.45 461.736 110.606 461.736 114.499C461.736 118.392 464.892 121.547 468.785 121.547Z" fill="white"/>
<path d="M137.582 311.05H207.917C216.52 311.05 223.495 318.025 223.495 326.628C223.495 329.545 222.677 332.263 221.285 334.591L225.388 347.304C226.323 350.206 223.149 352.71 220.549 351.119L205.935 342.207H137.582C128.979 342.207 122.004 335.231 122.004 326.628C122.004 318.025 128.979 311.05 137.582 311.05Z" fill="#F8B218"/>
<path d="M198.798 326.43C198.798 330.319 201.951 333.478 205.847 333.478C209.743 333.478 212.896 330.326 212.896 326.43C212.896 322.533 209.743 319.381 205.847 319.381C201.951 319.381 198.798 322.533 198.798 326.43Z" fill="white"/>
<path d="M176.988 326.43C176.988 330.319 180.141 333.478 184.037 333.478C187.934 333.478 191.086 330.326 191.086 326.43C191.086 322.533 187.934 319.381 184.037 319.381C180.141 319.381 176.988 322.533 176.988 326.43Z" fill="white"/>
<path d="M155.179 326.43C155.179 330.319 158.331 333.478 162.228 333.478C166.124 333.478 169.277 330.326 169.277 326.43C169.277 322.533 166.124 319.381 162.228 319.381C158.331 319.381 155.179 322.533 155.179 326.43Z" fill="white"/>
<path d="M133.369 326.43C133.369 330.319 136.522 333.478 140.418 333.478C144.315 333.478 147.467 330.326 147.467 326.43C147.467 322.533 144.315 319.381 140.418 319.381C136.522 319.381 133.369 322.533 133.369 326.43Z" fill="white"/>
<path d="M734.315 333.523C734.315 337.441 731.141 340.616 727.222 340.616C723.304 340.616 720.129 337.441 720.129 333.523C720.129 329.604 723.304 326.43 727.222 326.43C731.141 326.43 734.315 329.604 734.315 333.523Z" stroke="#F7B21A" stroke-width="0.9" stroke-miterlimit="10"/>
<path d="M353.955 136.684C353.955 140.602 350.78 143.777 346.862 143.777C342.943 143.777 339.769 140.602 339.769 136.684C339.769 132.765 342.943 129.591 346.862 129.591C350.78 129.591 353.955 132.765 353.955 136.684Z" stroke="#F7B21A" stroke-width="0.9" stroke-miterlimit="10"/>
<path d="M383.351 475.421C387.268 475.421 390.444 472.246 390.444 468.328C390.444 464.411 387.268 461.235 383.351 461.235C379.434 461.235 376.258 464.411 376.258 468.328C376.258 472.246 379.434 475.421 383.351 475.421Z" stroke="#F7B21A" stroke-width="0.9" stroke-miterlimit="10"/>
<path d="M701.472 49.2244C701.472 53.143 698.298 56.3175 694.379 56.3175C690.461 56.3175 687.286 53.143 687.286 49.2244C687.286 45.3059 690.461 42.1313 694.379 42.1313C698.298 42.1313 701.472 45.3059 701.472 49.2244Z" stroke="#F7B21A" stroke-width="0.9" stroke-miterlimit="10"/>
<path d="M492.549 56.3195L482.492 46.2624L472.434 56.3195L482.492 66.3767L492.549 56.3195Z" stroke="#F7B21A" stroke-width="0.9" stroke-miterlimit="10"/>
<path d="M58.4937 433.228L48.4366 423.17L38.3794 433.228L48.4366 443.285L58.4937 433.228Z" stroke="#F7B21A" stroke-width="0.9" stroke-miterlimit="10"/>
<path d="M645.463 555.001L635.406 544.944L625.349 555.001L635.406 565.058L645.463 555.001Z" stroke="#F7B21A" stroke-width="0.9" stroke-miterlimit="10"/>
<path d="M202.893 69.2884L238.948 33.2263" stroke="#F7B21A" stroke-width="0.9" stroke-miterlimit="10"/>
<path d="M713.301 80.9555L745.968 48.289" stroke="#F7B21A" stroke-width="0.9" stroke-miterlimit="10"/>
<path d="M162.117 289.616L179.581 272.152" stroke="#F7B21A" stroke-width="0.9" stroke-miterlimit="10"/>
<path d="M299.825 591.805L334.679 556.959" stroke="#F7B21A" stroke-width="0.9" stroke-miterlimit="10"/>
<path d="M764.758 347.274L806.27 305.762" stroke="#F7B21A" stroke-width="0.9" stroke-miterlimit="10"/>
<path d="M502.402 412.453L536.526 378.328" stroke="#F7B21A" stroke-width="0.9" stroke-miterlimit="10"/>
<path d="M506.718 89.9931L530.884 65.8265" stroke="#F7B21A" stroke-width="0.9" stroke-miterlimit="10"/>
<path d="M0.235687 513.516L37.9329 475.819" stroke="#F7B21A" stroke-width="0.9" stroke-miterlimit="10"/>
<path d="M354.493 389.354L376.251 367.596" stroke="#F7B21A" stroke-width="0.9" stroke-miterlimit="10"/>
</g>
<defs>
<clipPath id="clip0_6_1224">
<rect width="869.357" height="655.96" fill="white"/>
</clipPath>
</defs>
</svg>
